<svg xmlns="http://www.w3.org/2000/svg" version="1.1" xmlns:xlink="http://www.w3.org/1999/xlink" xmlns:svgjs="http://svgjs.dev/svgjs" width="2000" height="2250" viewBox="0 0 2000 2250"><g transform="matrix(1,0,0,1,0,0)"><svg viewBox="0 0 320 360" data-background-color="#ffffff" preserveAspectRatio="xMidYMid meet" height="2250" width="2000" xmlns="http://www.w3.org/2000/svg" xmlns:xlink="http://www.w3.org/1999/xlink"><g id="tight-bounds" transform="matrix(1,0,0,1,0,0)"><svg viewBox="0 0 320 360" height="360" width="320"><g><svg></svg></g><g><svg viewBox="0 0 320 360" height="360" width="320"><g><path d="M297.491 100.645c-12.426-21.51-112.674-79.355-137.491-79.355-24.817 0-125.028 57.845-137.491 79.355-11.591 20.02-11.591 138.726 0 158.746 12.463 21.474 112.674 79.319 137.491 79.319 24.817 0 125.064-57.845 137.491-79.355 11.591-20.02 11.591-138.69 0-158.71zM309.481 93.705c-14.461-24.998-119.469-86.295-149.481-86.295-30.012 0-135.02 61.297-149.481 86.295-14.025 24.199-14.025 148.391 0 172.59 14.461 24.998 119.469 86.295 149.481 86.295 30.012 0 135.02-61.297 149.481-86.259 14.025-24.235 14.025-148.427 0-172.626zM300.906 261.353c-12.753 22.055-115.472 81.317-140.906 81.318-25.434 0-128.153-59.298-140.906-81.354-11.881-20.529-11.881-142.178 0-162.707 12.753-22.019 115.472-81.281 140.906-81.281 25.434 0 128.153 59.298 140.906 81.318 11.881 20.529 11.881 142.178 0 162.706z" fill="#ed2647" fill-rule="nonzero" stroke="none" stroke-width="1" stroke-linecap="butt" stroke-linejoin="miter" stroke-miterlimit="10" stroke-dasharray="" stroke-dashoffset="0" font-family="none" font-weight="none" font-size="none" text-anchor="none" style="mix-blend-mode: normal" data-fill-palette-color="tertiary"></path></g><g transform="matrix(1,0,0,1,48,121.48941469489415)"><svg viewBox="0 0 224 117.02117061021171" height="117.02117061021171" width="224"><g><svg viewBox="0 0 224 117.02117061021171" height="117.02117061021171" width="224"><g><svg viewBox="0 0 224 117.02117061021171" height="117.02117061021171" width="224"><g><svg viewBox="0 0 224 117.02117061021171" height="117.02117061021171" width="224"><g id="textblocktransform"><svg viewBox="0 0 224 117.02117061021171" height="117.02117061021171" width="224" id="textblock"><g><svg viewBox="0 0 224 117.02117061021171" height="117.02117061021171" width="224"><g transform="matrix(1,0,0,1,0,0)"><svg width="224" viewBox="-4 -38.95 81.3 42.95" height="117.02117061021171" data-palette-color="#ffffff"><path d="M10.75-2.15L34.2-2.15 34.2 0 0 0 0-2.15 4.85-2.15 4.85-34.95 16.85-34.95Q24.8-34.95 28.45-31.9 32.1-28.85 32.1-22.5 32.1-16.15 28.38-13.2 24.65-10.25 16.95-10.25L16.95-10.25 10.75-10.25 10.75-2.15ZM17.6-15.6Q22.5-15.6 24.28-17.48 26.05-19.35 26.05-22.98 26.05-26.6 23.8-28.1 21.55-29.6 16.75-29.6L16.75-29.6 10.75-29.6 10.75-15.6 17.6-15.6ZM61.75-2.15L73.3-2.15 73.3 0 34.2 0 34.2-2.15 39.05-2.15 39.05-34.95 51.05-34.95Q60.45-34.95 65.5-30.38 70.55-25.8 70.55-17.5L70.55-17.5Q70.55-6.35 61.75-2.15L61.75-2.15ZM64.6-17.5L64.6-17.5Q64.6-29.5 50.85-29.5L50.85-29.5 44.95-29.5 44.95-5.55 51.5-5.55Q57.85-5.55 61.22-8.58 64.6-11.6 64.6-17.5Z" opacity="1" transform="matrix(1,0,0,1,0,0)" fill="#ffffff" class="wordmark-text-0" data-fill-palette-color="quaternary" id="text-0"></path></svg></g></svg></g></svg></g></svg></g></svg></g></svg></g></svg></g></svg></g><defs></defs></svg><rect width="320" height="360" fill="none" stroke="none" visibility="hidden"></rect></g></svg></g></svg>